<?xml version="1.0" encoding="UTF-8"?>
<svg xmlns="http://www.w3.org/2000/svg" width="900" height="380" viewBox="0 0 900 380">
  <style>
    .actor { fill:#f4f6f8; stroke:#2b73b9; stroke-width:2; rx:6; }
    .actorText { font-family: Arial, Helvetica, sans-serif; font-size:14px; fill:#0b2f5a; }
    .note { font-family: Arial, Helvetica, sans-serif; font-size:12px; fill:#073044; }
    .arrow { stroke:#333; stroke-width:2; fill:none; marker-end:url(#arrowhead);}
    .num { font-family: Arial, Helvetica, sans-serif; font-size:12px; fill:#ffffff; }
    .badge { fill:#2b73b9; rx:8; }
  </style>

  <defs>
    <marker id="arrowhead" markerWidth="10" markerHeight="7" refX="10" refY="3.5" orient="auto">
      <polygon points="0 0, 10 3.5, 0 7" fill="#333" />
    </marker>
  </defs>

  <!-- Actors -->
  <rect x="40" y="30" width="160" height="48" class="actor" />
  <text x="120" y="60" text-anchor="middle" class="actorText">Browser (Client)</text>

  <rect x="260" y="30" width="200" height="48" class="actor" />
  <text x="360" y="60" text-anchor="middle" class="actorText">Frontend / Service Worker</text>

  <rect x="500" y="30" width="220" height="48" class="actor" />
  <text x="610" y="60" text-anchor="middle" class="actorText">Backend (Spring Boot)</text>

  <rect x="740" y="30" width="120" height="48" class="actor" />
  <text x="800" y="60" text-anchor="middle" class="actorText">Firebase (FCM)</text>

  <!-- Lifelines -->
  <line x1="120" y1="80" x2="120" y2="320" stroke="#cfdde8" stroke-dasharray="4 4" />
  <line x1="360" y1="80" x2="360" y2="320" stroke="#cfdde8" stroke-dasharray="4 4" />
  <line x1="610" y1="80" x2="610" y2="320" stroke="#cfdde8" stroke-dasharray="4 4" />
  <line x1="800" y1="80" x2="800" y2="320" stroke="#cfdde8" stroke-dasharray="4 4" />

  <!-- Arrows and steps -->
  <!-- 1: register SW &amp; get token -->
  <path d="M120 100 L360 100" class="arrow" />
  <rect x="240" y="88" width="24" height="24" class="badge" />
  <text x="252" y="105" text-anchor="middle" class="num">1</text>
  <text x="240" y="78" class="note">Register SW &amp; get token (messaging.getToken)</text>

  <!-- 2: client -&gt; backend send token+payload -->
  <path d="M360 140 L610 140" class="arrow" />
  <rect x="480" y="128" width="24" height="24" class="badge" />
  <text x="492" y="145" text-anchor="middle" class="num">2</text>
  <text x="470" y="118" class="note">POST /api/notification/send (token + payload)</text>

  <!-- 3: backend persists &amp; calls FCM -->
  <path d="M610 180 L800 180" class="arrow" />
  <rect x="700" y="168" width="24" height="24" class="badge" />
  <text x="712" y="185" text-anchor="middle" class="num">3</text>
  <text x="640" y="160" class="note">Backend: persist Notification -&gt; FirebaseMessaging.send()</text>

  <!-- 4: FCM returns messageId -->
  <path d="M800 220 L610 220" class="arrow" />
  <rect x="700" y="208" width="24" height="24" class="badge" />
  <text x="712" y="225" text-anchor="middle" class="num">4</text>
  <text x="640" y="200" class="note">FCM responds (messageId)</text>

  <!-- 5: FCM delivers to device -->
  <path d="M800 260 L360 260" class="arrow" />
  <rect x="580" y="248" width="24" height="24" class="badge" />
  <text x="592" y="265" text-anchor="middle" class="num">5</text>
  <text x="400" y="240" class="note">FCM -&gt; Device (Service Worker receives)</text>

  <!-- 6: onMessage ACK to backend -->
  <path d="M360 300 L610 300" class="arrow" />
  <rect x="480" y="288" width="24" height="24" class="badge" />
  <text x="492" y="305" text-anchor="middle" class="num">6</text>
  <text x="470" y="280" class="note">Service Worker / onMessage -&gt; POST /api/internal/firebase/ack</text>

  <!-- Footer caption -->
  <text x="20" y="360" class="note">Figura 1 — Diagrama de sequência: fluxo de envio e confirmação de notificações via Firebase Cloud Messaging.</text>
</svg>

